<svg width="185" height="185" viewBox="0 0 185 185" fill="none" xmlns="http://www.w3.org/2000/svg">
<circle cx="92.5" cy="92.5" r="89" fill="white" stroke="black" stroke-width="7"/>
<path d="M143 94.8377C143 89.0426 139.962 83.6928 135.11 80.6891C136.181 78.4562 136.741 76.0084 136.741 73.5055C136.741 66.3043 127.849 60.4689 122.027 57.4209C121.405 48.8131 114.206 42 105.446 42C100.492 42 95.9602 44.001 92.8617 47.457C89.7359 44.0014 85.3004 42 80.5535 42C74.7908 42 69.3381 45.0912 66.3461 50.0113C64.9648 52.2828 64.1404 54.8797 63.9668 57.5326C63.9658 57.548 63.9637 57.5633 63.9627 57.5787C63.6117 57.7574 63.1861 57.9813 62.6664 58.2619C61.3596 58.9674 59.3857 60.1096 57.4043 61.5443C51.9998 65.4574 49.2594 69.4816 49.2594 73.5055C49.2594 76.0084 49.8187 78.4562 50.8902 80.6891C46.0383 83.6928 43 89.0426 43 94.8377C43 100.438 45.7799 105.578 50.3631 108.649C49.6379 110.543 49.2594 112.571 49.2594 114.604C49.2594 120.613 52.4332 126.058 57.6021 129.025C59.7746 136.596 68.4221 142 78.5975 142C83.8621 142 89.0158 140.455 92.9891 137.73C96.9377 140.49 101.992 142 107.403 142C117.578 142 126.226 136.596 128.398 129.025C133.567 126.058 136.741 120.613 136.741 114.604C136.741 112.572 136.362 110.543 135.637 108.649C140.22 105.578 143 100.438 143 94.8377ZM78.5975 138.094C69.9938 138.094 62.5129 133.456 61.1965 127.305C61.0729 126.728 60.6941 126.237 60.1668 125.971C57.0107 124.378 54.7301 121.622 53.7301 118.368C55.3625 119.182 57.1211 119.596 58.9553 119.596H58.9611C61.6186 119.596 64.3461 118.622 66.3961 116.936C67.2031 116.272 67.3229 114.986 66.6666 114.186C66.0072 113.382 64.7182 113.26 63.918 113.916C62.502 115.076 60.7871 115.689 58.957 115.689C56.767 115.689 54.7219 114.79 53.2424 113.205C53.4109 111.653 53.8609 110.162 54.5889 108.758C55.0844 107.802 54.7125 106.625 53.7578 106.127C49.5314 103.924 46.9062 99.5977 46.9062 94.8377C46.9062 89.8596 49.8367 85.3107 54.3719 83.2492C54.8891 83.0141 55.2785 82.5654 55.4381 82.0201C55.5977 81.4748 55.5119 80.8869 55.2033 80.41C53.8703 78.3506 53.1656 75.9629 53.1656 73.5055C53.1656 68.875 59.81 64.2531 64.2455 61.8326C65.0482 65.8939 67.3527 69.5773 70.7463 72.0615C71.5713 72.6654 72.858 72.4834 73.4762 71.6393C74.1133 70.7688 73.9242 69.5467 73.0537 68.9096C68.1273 65.3033 66.4443 58.3951 69.1816 52.9402C71.3197 48.6787 75.7828 45.9062 80.5535 45.9062C84.6986 45.9062 88.535 47.9021 90.9246 51.2729L90.9248 51.4699C90.917 52.7576 90.9135 55.6148 90.9178 62.0723H80.0525C79.2627 62.0723 78.5506 62.548 78.2482 63.2777C77.9459 64.0074 78.1129 64.8475 78.6711 65.4061C81.7236 68.4602 81.7236 73.4293 78.6713 76.4834C75.7102 79.4463 70.5549 79.4373 67.6025 76.4834C66.84 75.7205 65.6035 75.7201 64.8404 76.4828C64.0775 77.2453 64.0771 78.482 64.8398 79.2449C65.1414 79.5467 65.4578 79.8283 65.785 80.0926L60.8398 85.1711C58.1816 87.8408 58.1848 92.1764 60.8492 94.8422C63.4617 97.4563 67.9273 97.4445 70.5281 94.8424C71.2906 94.0793 71.2902 92.8428 70.5273 92.0803C69.7641 91.3178 68.5279 91.318 67.7654 92.0807C66.6898 93.1566 64.7238 93.1932 63.6123 92.0811C62.4666 90.9348 62.4666 89.0695 63.6123 87.923C63.6182 87.917 63.6242 87.9109 63.6301 87.9049C63.6301 87.9049 69.3289 82.0523 69.3295 82.0516C69.3959 81.9834 71.3727 82.5539 71.6211 82.5861C75.2139 83.051 78.8754 81.8049 81.434 79.2449C85.0135 75.6635 85.7918 70.3244 83.7691 65.9785H90.9211C90.9256 70.9738 90.9336 77.5822 90.9459 86.3287H86.1641V85.8352C86.1641 84.7564 85.2896 83.882 84.2109 83.882C83.1322 83.882 82.2578 84.7564 82.2578 85.8352V90.7279C82.2578 91.8066 83.1322 92.6811 84.2109 92.6811C85.2896 92.6811 86.1641 91.8066 86.1641 90.7279V90.2352H90.9514C90.9527 91.1588 90.9656 99.8555 90.9709 103.16H85.5041C85.1736 102.249 84.6453 101.394 83.916 100.664C82.6234 99.3707 80.9049 98.6586 79.0768 98.6586C77.2486 98.6586 75.5299 99.3707 74.2373 100.664C73.4748 101.427 73.4752 102.664 74.2381 103.426C75.0012 104.189 76.2375 104.188 77.0002 103.426C79.5937 100.832 83.8447 104.891 81.1531 107.584C80.3906 108.346 80.3908 109.583 81.1537 110.346C81.8895 111.081 83.1609 111.1 83.9158 110.345C84.8506 109.41 85.4566 108.269 85.7361 107.066H90.9771C90.9848 111.565 90.9924 115.824 91 119.605H75.6766C75.1584 119.605 74.6615 119.811 74.2951 120.178C71.6275 122.846 71.6275 127.189 74.2949 129.858C76.8871 132.452 81.3959 132.438 83.9736 129.858C84.7361 129.095 84.7359 127.859 83.973 127.096C83.21 126.334 81.9738 126.334 81.2113 127.096C80.1131 128.195 78.1494 128.189 77.058 127.097C76.0879 126.126 75.9391 124.64 76.6121 123.511H91.0082C91.0154 126.847 91.0354 133.716 91.0385 134.336C87.6807 136.733 83.2035 138.094 78.5975 138.094ZM132.242 106.127C131.288 106.625 130.916 107.802 131.411 108.758C132.355 110.58 132.834 112.547 132.834 114.605C132.834 119.436 130.152 123.791 125.833 125.971C125.306 126.237 124.927 126.728 124.804 127.306C123.487 133.456 116.006 138.094 107.403 138.094C102.735 138.094 98.2541 136.733 94.9518 134.338L94.9359 123.511H101.996C102.706 126.533 105.421 128.79 108.656 128.79C112.429 128.79 115.499 125.719 115.499 121.944C115.499 118.169 112.429 115.098 108.656 115.098C105.703 115.098 103.181 116.978 102.224 119.605H94.9303L94.9121 107.066H113.052C113.894 109.892 116.515 111.959 119.61 111.959C123.383 111.959 126.453 108.888 126.453 105.113C126.453 101.338 123.383 98.2672 119.61 98.2672C116.515 98.2672 113.894 100.334 113.052 103.16H94.9063L94.8875 90.2352H99.1635C100.006 93.0611 102.626 95.1279 105.721 95.1279C109.495 95.1279 112.565 92.0568 112.565 88.282C112.565 84.5072 109.495 81.4361 105.721 81.4361C102.626 81.4361 100.006 83.5029 99.1635 86.3289H94.8818L94.8521 65.9787H100.557C101.426 68.7615 104.026 70.7871 107.091 70.7871C110.864 70.7871 113.934 67.716 113.934 63.9412C113.934 60.1664 110.864 57.0953 107.091 57.0953C103.965 57.0953 101.324 59.2033 100.509 62.0725H94.8465L94.8307 51.2557C97.1488 47.8955 101.075 45.9062 105.446 45.9062C112.459 45.9062 118.164 51.6148 118.164 58.6314C118.164 59.8369 119.113 60.3176 119.518 60.5229C127.856 64.7465 132.834 69.5998 132.834 73.5055C132.835 78.3691 129.648 84.0938 124.316 84.2658C123.795 84.2814 123.311 84.5002 122.953 84.8811C122.596 85.26 122.408 85.758 122.426 86.2795C122.441 86.7893 122.652 87.2658 123.02 87.6213C123.385 87.9768 123.867 88.1721 124.377 88.1721H124.383C124.4 88.1721 124.42 88.1721 124.437 88.1701C127.702 87.8021 130.875 86.5697 133.038 84.0035C136.761 86.3 139.094 90.3973 139.094 94.8377C139.094 99.5977 136.469 103.924 132.242 106.127ZM105.719 121.944C105.719 120.323 107.036 119.004 108.656 119.004C110.275 119.004 111.593 120.323 111.593 121.944C111.593 123.565 110.275 124.883 108.656 124.883C107.036 124.883 105.719 123.565 105.719 121.944ZM116.673 105.113C116.673 103.492 117.99 102.173 119.61 102.173C121.229 102.173 122.547 103.492 122.547 105.113C122.547 106.734 121.229 108.053 119.61 108.053C117.99 108.053 116.673 106.734 116.673 105.113ZM102.785 88.2818C102.785 86.6609 104.102 85.3422 105.722 85.3422C107.341 85.3422 108.659 86.6609 108.659 88.2818C108.659 89.9027 107.341 91.2215 105.722 91.2215C104.102 91.2215 102.785 89.9027 102.785 88.2818ZM104.154 63.941C104.154 62.3201 105.471 61.0014 107.091 61.0014C108.71 61.0014 110.028 62.3201 110.028 63.941C110.028 65.5619 108.71 66.8807 107.091 66.8807C105.471 66.8807 104.154 65.5619 104.154 63.941Z" fill="black"/>
<path d="M68.8672 106.752C68.3242 106.705 67.7852 106.889 67.3828 107.256C67.0195 107.588 66.7969 108.041 66.7559 108.531C66.7109 109.053 66.8711 109.559 67.209 109.957C67.5449 110.355 68.0156 110.6 68.5352 110.645C68.5918 110.648 68.6465 110.65 68.7031 110.65C69.1914 110.65 69.6582 110.469 70.0195 110.139C70.3828 109.807 70.6055 109.354 70.6484 108.863C70.6484 108.861 70.6484 108.861 70.6465 108.861C70.7363 107.789 69.9395 106.842 68.8672 106.752Z" fill="black"/>
<path d="M118.641 82.0762C118.641 82.0762 118.641 82.0762 118.639 82.0742C118.273 81.7207 117.791 81.5273 117.283 81.5273C116.748 81.5273 116.248 81.7383 115.877 82.123C115.516 82.498 115.32 82.9922 115.33 83.5137C115.338 84.0352 115.549 84.5215 115.924 84.8828C115.924 84.8828 115.924 84.8848 115.926 84.8848C116.291 85.2383 116.773 85.4336 117.281 85.4336C117.816 85.4336 118.316 85.2207 118.687 84.8359C119.434 84.0625 119.414 82.8262 118.641 82.0762Z" fill="black"/>
</svg>
