<svg width="185" height="185" viewBox="0 0 185 185" fill="none" xmlns="http://www.w3.org/2000/svg">
<circle cx="92.5" cy="92.5" r="89" fill="white" stroke="black" stroke-width="7"/>
<path d="M93 115.438C93.8211 115.435 94.6345 115.596 95.393 115.91C96.1516 116.224 96.8403 116.686 97.4193 117.268L99.6291 115.058C97.8709 113.3 95.4864 112.313 93 112.313C90.5136 112.313 88.129 113.3 86.3709 115.058L88.5807 117.268C89.1596 116.686 89.8484 116.224 90.6069 115.91C91.3655 115.596 92.1789 115.435 93 115.438Z" fill="black"/>
<path d="M89.6853 118.373L91.8953 120.583C92.1883 120.29 92.5857 120.125 93 120.125C93.4143 120.125 93.8117 120.29 94.1047 120.583L96.3147 118.373C95.8794 117.938 95.3626 117.592 94.7939 117.357C94.2252 117.121 93.6156 117 93 117C92.3844 117 91.7748 117.121 91.2061 117.357C90.6374 117.592 90.1206 117.938 89.6853 118.373V118.373Z" fill="black"/>
<path d="M131.716 102.558C130.845 101.688 129.812 100.997 128.675 100.526C127.537 100.055 126.318 99.8124 125.087 99.8124C123.856 99.8124 122.637 100.055 121.499 100.526C120.362 100.997 119.328 101.688 118.458 102.558L120.667 104.768C121.839 103.596 123.429 102.938 125.087 102.938C126.744 102.938 128.334 103.596 129.506 104.768L131.716 102.558Z" fill="black"/>
<path d="M121.772 105.873L123.982 108.083C124.275 107.79 124.672 107.625 125.087 107.625C125.501 107.625 125.899 107.79 126.192 108.083L128.401 105.873C127.966 105.438 127.449 105.092 126.881 104.857C126.312 104.621 125.702 104.5 125.087 104.5C124.471 104.5 123.862 104.621 123.293 104.857C122.724 105.092 122.207 105.438 121.772 105.873V105.873Z" fill="black"/>
<path d="M93 124.91C93.9169 124.91 94.6602 124.167 94.6602 123.25C94.6602 122.333 93.9169 121.59 93 121.59C92.0831 121.59 91.3398 122.333 91.3398 123.25C91.3398 124.167 92.0831 124.91 93 124.91Z" fill="black"/>
<path d="M78.9375 60.75H107.062C107.477 60.75 107.874 60.5854 108.167 60.2924C108.46 59.9993 108.625 59.6019 108.625 59.1875V49.4219C108.624 48.6969 108.336 48.0019 107.823 47.4892C107.311 46.9766 106.616 46.6883 105.891 46.6875H80.1094C79.3844 46.6883 78.6894 46.9766 78.1767 47.4892C77.6641 48.0019 77.3758 48.6969 77.375 49.4219V59.1875C77.375 59.6019 77.5396 59.9993 77.8326 60.2924C78.1257 60.5854 78.5231 60.75 78.9375 60.75ZM99.25 57.625H86.75V56.0625H99.25V57.625ZM80.5 49.8125H105.5V57.625H102.375V54.5C102.375 54.0856 102.21 53.6882 101.917 53.3951C101.624 53.1021 101.227 52.9375 100.812 52.9375H85.1875C84.7731 52.9375 84.3757 53.1021 84.0826 53.3951C83.7896 53.6882 83.625 54.0856 83.625 54.5V57.625H80.5V49.8125Z" fill="black"/>
<path d="M136.75 65.4375H118C117.171 65.4385 116.377 65.768 115.791 66.3539C115.206 66.9397 114.876 67.734 114.875 68.5625V71.6875H108.625C108.319 71.6875 108.02 71.7773 107.765 71.9456C107.51 72.1139 107.309 72.3535 107.189 72.6346L103.634 80.9309C101.997 79.3787 99.9199 78.3721 97.6875 78.0494V74.8125C97.6875 74.5553 97.624 74.3021 97.5026 74.0753C97.3813 73.8485 97.2058 73.6552 96.9918 73.5125L88.3125 67.7264V63.875H85.1875V68.5625C85.1875 68.8197 85.251 69.0729 85.3724 69.2997C85.4937 69.5265 85.6692 69.7198 85.8832 69.8625L94.5625 75.6486V78.051C93.1089 78.2555 91.7119 78.7526 90.4559 79.5121L81.5004 72.0492C81.2195 71.8154 80.8655 71.6874 80.5 71.6875H68V63.875C67.999 63.0465 67.6695 62.2522 67.0836 61.6664C66.4978 61.0805 65.7035 60.751 64.875 60.75H49.25C48.4215 60.751 47.6272 61.0805 47.0414 61.6664C46.4555 62.2522 46.126 63.0465 46.125 63.875V87.3125C46.125 87.7269 46.2896 88.1243 46.5826 88.4174C46.8757 88.7104 47.2731 88.875 47.6875 88.875H66.4375C66.8519 88.875 67.2493 88.7104 67.5423 88.4174C67.8354 88.1243 68 87.7269 68 87.3125V74.8125H79.9336L88.0084 81.5416C87.6411 81.9479 87.3048 82.3812 87.0021 82.8377C85.1619 82.3995 83.2251 82.6432 81.5508 83.5236C79.8765 84.4041 78.578 85.8616 77.8961 87.6262C75.2558 88.2714 72.9507 89.8774 71.4308 92.1307C69.9109 94.3839 69.2852 97.1228 69.676 99.8125H66.4375C66.1949 99.8125 65.9557 99.869 65.7387 99.9775C65.5218 100.086 65.333 100.243 65.1875 100.438L61.2103 105.74L59.4002 104.705C59.1641 104.57 58.8969 104.499 58.625 104.499C58.3531 104.499 58.0859 104.57 57.8498 104.705L46.9123 110.955C46.6127 111.126 46.3781 111.391 46.2449 111.709C46.1117 112.027 46.0875 112.38 46.1759 112.713C46.2644 113.047 46.4606 113.341 46.7341 113.551C47.0075 113.762 47.3427 113.875 47.6875 113.875V126.375C47.6875 126.789 47.8521 127.187 48.1451 127.48C48.4382 127.773 48.8356 127.938 49.25 127.938H68C68.4144 127.938 68.8118 127.773 69.1048 127.48C69.3979 127.187 69.5625 126.789 69.5625 126.375V113.875C69.907 113.875 70.2419 113.761 70.5151 113.551C70.7882 113.341 70.9842 113.047 71.0726 112.714C71.1611 112.381 71.137 112.028 71.004 111.71C70.8711 111.392 70.6368 111.127 70.3377 110.956L63.9447 107.304L67.2187 102.938H70.6199C71.5081 104.806 72.9076 106.385 74.6561 107.491C76.4047 108.597 78.4309 109.186 80.5 109.188H82.0625V133.016C82.0638 134.155 82.5169 135.247 83.3224 136.053C84.128 136.858 85.2202 137.311 86.3594 137.312H99.6406C100.78 137.311 101.872 136.858 102.678 136.053C103.483 135.247 103.936 134.155 103.937 133.016V109.188H105.5C108.275 109.189 110.947 108.136 112.974 106.242C115.002 104.347 116.233 101.753 116.419 98.984C116.606 96.2154 115.733 93.4795 113.977 91.3305C112.222 89.1816 109.715 87.7801 106.965 87.4102C106.794 86.1458 106.402 84.9215 105.806 83.7934L109.655 74.8125H114.875V81.0625C114.876 81.891 115.206 82.6853 115.791 83.2711C116.377 83.857 117.171 84.1865 118 84.1875H122.082L121.205 86.8184C121.127 87.0532 121.105 87.3034 121.143 87.5481C121.18 87.7929 121.275 88.0253 121.42 88.2261C121.565 88.427 121.755 88.5906 121.975 88.7034C122.196 88.8162 122.44 88.875 122.687 88.875H132.062C132.31 88.875 132.554 88.8161 132.774 88.7033C132.995 88.5905 133.185 88.4269 133.33 88.2261C133.475 88.0252 133.57 87.7928 133.607 87.5481C133.644 87.3033 133.623 87.0532 133.545 86.8184L132.668 84.1875H136.75C137.578 84.1865 138.373 83.857 138.959 83.2711C139.544 82.6853 139.874 81.891 139.875 81.0625V68.5625C139.874 67.734 139.544 66.9397 138.959 66.3539C138.373 65.768 137.578 65.4385 136.75 65.4375V65.4375ZM64.875 85.75H49.25V82.625H64.875V85.75ZM64.875 79.5H49.25V63.875H64.875V79.5ZM58.625 107.862L63.6787 110.75H53.5713L58.625 107.862ZM60.1875 124.812H57.0625V120.125H60.1875V124.812ZM66.4375 113.875V124.812H63.3125V118.562C63.3125 118.148 63.1479 117.751 62.8548 117.458C62.5618 117.165 62.1644 117 61.75 117H55.5C55.0856 117 54.6882 117.165 54.3951 117.458C54.1021 117.751 53.9375 118.148 53.9375 118.562V124.812H50.8125V113.875H66.4375ZM96.125 90.4375C96.434 90.4375 96.7361 90.5291 96.9931 90.7008C97.25 90.8725 97.4503 91.1165 97.5685 91.4021C97.6868 91.6876 97.7178 92.0017 97.6575 92.3048C97.5972 92.6079 97.4484 92.8863 97.2298 93.1049C97.0113 93.3234 96.7329 93.4722 96.4298 93.5325C96.1267 93.5928 95.8126 93.5618 95.527 93.4436C95.2415 93.3253 94.9975 93.125 94.8258 92.8681C94.6541 92.6111 94.5625 92.309 94.5625 92C94.563 91.5857 94.7277 91.1886 95.0206 90.8957C95.3136 90.6027 95.7107 90.438 96.125 90.4375ZM100.812 133.016C100.812 133.326 100.689 133.624 100.469 133.844C100.249 134.064 99.9513 134.187 99.6406 134.188H86.3594C86.0487 134.187 85.7508 134.064 85.5311 133.844C85.3114 133.624 85.1878 133.326 85.1875 133.016V131.062H100.812V133.016ZM100.812 127.938H85.1875V109.188H100.812V127.938ZM100.812 106.062H85.1875V104.109C85.1878 103.799 85.3114 103.501 85.5311 103.281C85.7508 103.061 86.0487 102.938 86.3594 102.938H99.6406C99.9513 102.938 100.249 103.061 100.469 103.281C100.689 103.501 100.812 103.799 100.812 104.109V106.062ZM113.312 98.25C113.31 100.321 112.486 102.307 111.022 103.772C109.557 105.236 107.571 106.06 105.5 106.062H103.937V104.109C103.936 102.97 103.483 101.878 102.678 101.072C101.872 100.267 100.78 99.8138 99.6406 99.8125H86.3594C85.2202 99.8138 84.128 100.267 83.3224 101.072C82.5169 101.878 82.0638 102.97 82.0625 104.109V106.062H80.5C78.5281 106.063 76.629 105.318 75.1835 103.977C73.7379 102.636 72.8531 100.798 72.7063 98.8315C72.5595 96.8651 73.1618 94.916 74.3922 93.3751C75.6226 91.8342 77.3901 90.8156 79.3402 90.5236C79.6484 90.4776 79.9359 90.3406 80.1656 90.13C80.3953 89.9194 80.5568 89.6449 80.6293 89.3418C80.7899 88.6739 81.0954 88.0495 81.524 87.5127C81.9527 86.9759 82.4941 86.5399 83.11 86.2355C83.7258 85.9312 84.401 85.7659 85.0878 85.7514C85.7746 85.7369 86.4562 85.8735 87.0844 86.1516C87.4528 86.3151 87.8701 86.3298 88.2492 86.1929C88.6283 86.0559 88.9398 85.7777 89.1185 85.4164C89.643 84.346 90.4069 83.4107 91.3509 82.683C92.295 81.9553 93.3939 81.4547 94.5625 81.2199V87.5813C93.52 87.9498 92.6413 88.6751 92.0818 89.6289C91.5223 90.5826 91.318 91.7035 91.505 92.7933C91.692 93.8832 92.2582 94.8718 93.1036 95.5845C93.9491 96.2973 95.0192 96.6882 96.125 96.6882C97.2307 96.6882 98.3009 96.2973 99.1463 95.5845C99.9917 94.8718 100.558 93.8832 100.745 92.7933C100.932 91.7035 100.728 90.5826 100.168 89.6289C99.6087 88.6751 98.73 87.9498 97.6875 87.5813V81.2197C99.4508 81.5822 101.035 82.5415 102.174 83.936C103.312 85.3304 103.935 87.0748 103.937 88.875C103.937 89.2894 104.102 89.6868 104.395 89.9799C104.688 90.2729 105.086 90.4375 105.5 90.4375C107.571 90.4398 109.557 91.2637 111.022 92.7283C112.486 94.1929 113.31 96.1787 113.312 98.25ZM118 68.5625H136.75L136.751 76.375H118V68.5625ZM124.855 85.75L125.376 84.1875H129.374L129.895 85.75H124.855ZM136.75 81.0625H118V79.5H136.752V81.0625H136.75Z" fill="black"/>
<path d="M57.0625 77.9375C58.2986 77.9375 59.507 77.5709 60.5348 76.8842C61.5626 76.1974 62.3637 75.2213 62.8367 74.0793C63.3098 72.9372 63.4336 71.6806 63.1924 70.4682C62.9513 69.2558 62.356 68.1422 61.4819 67.2681C60.6078 66.394 59.4942 65.7988 58.2818 65.5576C57.0694 65.3164 55.8128 65.4402 54.6707 65.9133C53.5287 66.3863 52.5526 67.1874 51.8658 68.2152C51.1791 69.243 50.8125 70.4514 50.8125 71.6875C50.8144 73.3445 51.4734 74.9332 52.6451 76.1049C53.8168 77.2766 55.4055 77.9356 57.0625 77.9375ZM57.0625 68.5625C57.6806 68.5625 58.2848 68.7458 58.7987 69.0892C59.3126 69.4325 59.7131 69.9206 59.9496 70.4916C60.1861 71.0626 60.248 71.691 60.1275 72.2972C60.0069 72.9034 59.7092 73.4602 59.2722 73.8972C58.8352 74.3343 58.2783 74.6319 57.6722 74.7525C57.066 74.873 56.4376 74.8112 55.8666 74.5746C55.2956 74.3381 54.8075 73.9376 54.4642 73.4237C54.1208 72.9098 53.9375 72.3056 53.9375 71.6875C53.9385 70.859 54.268 70.0647 54.8539 69.4789C55.4397 68.893 56.234 68.5635 57.0625 68.5625V68.5625Z" fill="black"/>
<path d="M82.0625 93.5625H78.9375V96.6875H82.0625V93.5625Z" fill="black"/>
<path d="M88.3125 93.5625H85.1875V96.6875H88.3125V93.5625Z" fill="black"/>
<path d="M107.062 93.5625H103.937V96.6875H107.062V93.5625Z" fill="black"/>
<path d="M138.691 117.047L133.08 115.644C133.052 115.618 133.022 115.596 132.99 115.575L130.237 111.446C130.095 111.232 129.901 111.056 129.675 110.935C129.448 110.814 129.195 110.75 128.937 110.75H118C117.743 110.75 117.49 110.814 117.263 110.935C117.036 111.056 116.843 111.232 116.7 111.446L113.575 116.133C113.404 116.39 113.312 116.691 113.312 117V124.812C113.312 125.227 113.477 125.624 113.77 125.917C114.063 126.21 114.461 126.375 114.875 126.375H116.706C117.03 127.288 117.628 128.079 118.419 128.639C119.211 129.198 120.156 129.498 121.125 129.498C122.094 129.498 123.039 129.198 123.83 128.639C124.622 128.079 125.22 127.288 125.544 126.375H127.644C127.967 127.288 128.566 128.079 129.357 128.639C130.148 129.198 131.093 129.498 132.062 129.498C133.031 129.498 133.977 129.198 134.768 128.639C135.559 128.079 136.158 127.288 136.481 126.375H138.312C138.727 126.375 139.124 126.21 139.417 125.917C139.71 125.624 139.875 125.227 139.875 124.812V118.562C139.875 118.214 139.758 117.876 139.544 117.601C139.33 117.326 139.029 117.131 138.691 117.047ZM129.143 115.437H124.25V113.875H128.101L129.143 115.437ZM118.836 113.875H121.125V115.437H117.795L118.836 113.875ZM121.125 126.375C120.816 126.375 120.514 126.283 120.257 126.112C120 125.94 119.8 125.696 119.681 125.41C119.563 125.125 119.532 124.811 119.593 124.508C119.653 124.205 119.802 123.926 120.02 123.708C120.239 123.489 120.517 123.34 120.82 123.28C121.123 123.22 121.437 123.251 121.723 123.369C122.008 123.487 122.252 123.687 122.424 123.944C122.596 124.201 122.687 124.503 122.687 124.812C122.687 125.227 122.522 125.624 122.229 125.917C121.936 126.21 121.539 126.375 121.125 126.375V126.375ZM132.062 126.375C131.753 126.375 131.451 126.283 131.194 126.112C130.937 125.94 130.737 125.696 130.619 125.41C130.501 125.125 130.47 124.811 130.53 124.508C130.59 124.205 130.739 123.926 130.958 123.708C131.176 123.489 131.455 123.34 131.758 123.28C132.061 123.22 132.375 123.251 132.66 123.369C132.946 123.487 133.19 123.687 133.362 123.944C133.533 124.201 133.625 124.503 133.625 124.812C133.625 125.227 133.46 125.624 133.167 125.917C132.874 126.21 132.477 126.375 132.062 126.375V126.375ZM136.75 123.25H136.481C136.158 122.337 135.559 121.546 134.768 120.986C133.977 120.427 133.031 120.127 132.062 120.127C131.093 120.127 130.148 120.427 129.357 120.986C128.566 121.546 127.967 122.337 127.644 123.25H125.544C125.22 122.337 124.622 121.546 123.83 120.986C123.039 120.427 122.094 120.127 121.125 120.127C120.156 120.127 119.211 120.427 118.419 120.986C117.628 121.546 117.03 122.337 116.706 123.25H116.437V118.562H131.87L136.75 119.782V123.25Z" fill="black"/>
</svg>
