<svg width="185" height="185" viewBox="0 0 185 185" fill="none" xmlns="http://www.w3.org/2000/svg">
<circle cx="92.5" cy="92.5" r="89" fill="white" stroke="black" stroke-width="7"/>
<path d="M52.6774 74.2581H59.129V77.4839H52.6774V74.2581Z" fill="black"/>
<path d="M138.161 67.8065C140.829 67.8065 143 65.6352 143 62.9677V46.8387C143 44.1713 140.829 42 138.161 42H115.581C112.913 42 110.742 44.1713 110.742 46.8387V62.9677C110.742 65.6352 112.913 67.8065 115.581 67.8065H120.419V71.0323H117.194V74.2581H125.258V90.3871H118.602C117.315 89.131 115.73 88.1694 113.957 87.6401C113.965 87.4771 113.968 87.3196 113.968 87.1613C113.968 80.0466 108.179 74.2581 101.065 74.2581C96.6503 74.2581 92.5472 76.5546 90.1971 80.2277C88.5417 79.4842 86.7516 79.0968 84.9355 79.0968C79.5825 79.0968 74.7627 82.4706 72.8773 87.4196C71.6519 87.6826 70.5099 88.1536 69.4727 88.7742H57.5161V83.9355H63.9677C66.6352 83.9355 68.8065 81.7642 68.8065 79.0968V46.8387C68.8065 44.1713 66.6352 42 63.9677 42H47.8387C45.1713 42 43 44.1713 43 46.8387V79.0968C43 81.7642 45.1713 83.9355 47.8387 83.9355H54.2903V92H66.0422C65.3562 92.9789 64.8238 94.0594 64.4741 95.2258H57.5161V112.968H51.0645C48.3971 112.968 46.2258 115.139 46.2258 117.806V132.323H43V137.161C43 139.829 45.1713 142 47.8387 142H73.6452C76.3126 142 78.4839 139.829 78.4839 137.161V132.323H75.2581V117.806C75.2581 115.139 73.0868 112.968 70.4194 112.968H60.7419V98.4516H63.9677C63.9677 104.676 69.0341 109.742 75.2581 109.742H110.742C116.418 109.742 121.116 105.526 121.903 100.065H128.484V112.968H117.194V142H143V112.968H131.71V96.8387H121.897C121.729 95.7031 121.381 94.6225 120.893 93.6129H128.484V74.2581H136.548V71.0323H133.323V67.8065H138.161ZM65.5806 67.8065H46.2258V51.6774H65.5806V67.8065ZM47.8387 45.2258H63.9677C64.8577 45.2258 65.5806 45.9488 65.5806 46.8387V48.4516H46.2258V46.8387C46.2258 45.9488 46.9488 45.2258 47.8387 45.2258ZM46.2258 79.0968V71.0323H65.5806V79.0968C65.5806 79.9867 64.8577 80.7097 63.9677 80.7097H47.8387C46.9488 80.7097 46.2258 79.9867 46.2258 79.0968ZM75.2581 137.161C75.2581 138.051 74.5351 138.774 73.6452 138.774H47.8387C46.9488 138.774 46.2258 138.051 46.2258 137.161V135.548H75.2581V137.161ZM72.0323 117.806V132.323H49.4516V117.806C49.4516 116.917 50.1746 116.194 51.0645 116.194H70.4194C71.3093 116.194 72.0323 116.917 72.0323 117.806ZM120.419 138.774V129.097H139.774V138.774H120.419ZM139.774 125.871H120.419V116.194H139.774V125.871ZM110.742 106.516H75.2581C70.8116 106.516 67.1935 102.898 67.1935 98.4516C67.1935 94.3745 70.2453 90.9352 74.2902 90.4517L75.3486 90.3241L75.6471 89.3003C76.8403 85.1916 80.6614 82.3226 84.9355 82.3226C86.7161 82.3226 88.4645 82.8227 89.9971 83.7662L91.5367 84.7159L92.3046 83.0755C93.8923 79.6772 97.3307 77.4839 101.065 77.4839C106.402 77.4839 110.742 81.8241 110.742 87.1613C110.742 87.6063 110.702 88.0804 110.614 88.6529L110.371 90.2485L111.966 90.4903C115.866 91.0857 118.806 94.5083 118.806 98.4516C118.806 102.898 115.188 106.516 110.742 106.516ZM115.581 45.2258H138.161C139.051 45.2258 139.774 45.9488 139.774 46.8387V58.129H113.968V46.8387C113.968 45.9488 114.691 45.2258 115.581 45.2258ZM113.968 62.9677V61.3548H139.774V62.9677C139.774 63.8577 139.051 64.5806 138.161 64.5806H115.581C114.691 64.5806 113.968 63.8577 113.968 62.9677ZM130.097 71.0323H123.645V67.8065H130.097V71.0323Z" fill="black"/>
<path d="M123.645 119.419H126.871V122.645H123.645V119.419Z" fill="black"/>
<path d="M133.323 132.323H136.548V135.548H133.323V132.323Z" fill="black"/>
<path d="M130.097 119.419H136.548V122.645H130.097V119.419Z" fill="black"/>
<path d="M123.645 132.323H130.097V135.548H123.645V132.323Z" fill="black"/>
</svg>
