<svg width="576" height="405" viewBox="0 0 576 405" fill="none" xmlns="http://www.w3.org/2000/svg">
<path d="M288 97C232.86 97 188 141.86 188 197C188 252.14 232.86 297 288 297C343.14 297 388 252.14 388 197C388 141.86 343.14 97 288 97ZM288 285.281C239.321 285.281 199.719 245.679 199.719 197C199.719 148.321 239.321 108.719 288 108.719C336.679 108.719 376.281 148.321 376.281 197C376.281 245.679 336.679 285.281 288 285.281Z" fill="black"/>
<path d="M288 209.205C271.617 209.205 256.209 217.936 247.79 231.989C246.127 234.765 247.029 238.364 249.805 240.027C252.581 241.691 256.179 240.788 257.842 238.012C264.157 227.472 275.713 220.924 288 220.924C300.322 220.924 311.895 227.5 318.202 238.085C319.298 239.925 321.244 240.946 323.241 240.946C324.261 240.946 325.294 240.68 326.234 240.12C329.014 238.463 329.925 234.867 328.268 232.087C319.859 217.973 304.429 209.205 288 209.205V209.205Z" fill="black"/>
<path d="M275.216 176.576C276.264 173.514 274.631 170.183 271.57 169.135C268.508 168.087 265.177 169.719 264.129 172.78C262.209 178.388 256.937 182.156 251.009 182.156C245.078 182.156 239.804 178.385 237.887 172.772C236.841 169.71 233.511 168.075 230.448 169.121C227.386 170.167 225.752 173.498 226.797 176.56C230.335 186.916 240.065 193.875 251.009 193.875C261.946 193.875 271.674 186.923 275.216 176.576Z" fill="black"/>
<path d="M345.588 169.135C342.528 168.087 339.195 169.719 338.146 172.78C336.227 178.388 330.954 182.156 325.027 182.156C319.095 182.156 313.821 178.385 311.904 172.772C310.858 169.71 307.529 168.075 304.465 169.121C301.403 170.167 299.769 173.498 300.814 176.56C304.352 186.916 314.082 193.875 325.027 193.875C335.963 193.875 345.691 186.923 349.234 176.577C350.282 173.514 348.65 170.183 345.588 169.135V169.135Z" fill="black"/>
<path d="M110.7 297H135V253.53H162V232.2H135V103.68H105.57L10.8 234.9V253.53H110.7V297ZM39.15 232.2L111.78 129.33V232.2H39.15Z" fill="black"/>
<path d="M110.7 297H109.7V298H110.7V297ZM135 297V298H136V297H135ZM135 253.53V252.53H134V253.53H135ZM162 253.53V254.53H163V253.53H162ZM162 232.2H163V231.2H162V232.2ZM135 232.2H134V233.2H135V232.2ZM135 103.68H136V102.68H135V103.68ZM105.57 103.68V102.68H105.059L104.759 103.095L105.57 103.68ZM10.8 234.9L9.98932 234.315L9.8 234.577V234.9H10.8ZM10.8 253.53H9.8V254.53H10.8V253.53ZM110.7 253.53H111.7V252.53H110.7V253.53ZM39.15 232.2L38.3331 231.623L37.2198 233.2H39.15V232.2ZM111.78 129.33H112.78V126.18L110.963 128.753L111.78 129.33ZM111.78 232.2V233.2H112.78V232.2H111.78ZM110.7 298H135V296H110.7V298ZM136 297V253.53H134V297H136ZM135 254.53H162V252.53H135V254.53ZM163 253.53V232.2H161V253.53H163ZM162 231.2H135V233.2H162V231.2ZM136 232.2V103.68H134V232.2H136ZM135 102.68H105.57V104.68H135V102.68ZM104.759 103.095L9.98932 234.315L11.6107 235.485L106.381 104.265L104.759 103.095ZM9.8 234.9V253.53H11.8V234.9H9.8ZM10.8 254.53H110.7V252.53H10.8V254.53ZM109.7 253.53V297H111.7V253.53H109.7ZM39.9669 232.777L112.597 129.907L110.963 128.753L38.3331 231.623L39.9669 232.777ZM110.78 129.33V232.2H112.78V129.33H110.78ZM111.78 231.2H39.15V233.2H111.78V231.2Z" fill="black"/>
<path d="M516.7 297H541V253.53H568V232.2H541V103.68H511.57L416.8 234.9V253.53H516.7V297ZM445.15 232.2L517.78 129.33V232.2H445.15Z" fill="black"/>
<path d="M516.7 297H515.7V298H516.7V297ZM541 297V298H542V297H541ZM541 253.53V252.53H540V253.53H541ZM568 253.53V254.53H569V253.53H568ZM568 232.2H569V231.2H568V232.2ZM541 232.2H540V233.2H541V232.2ZM541 103.68H542V102.68H541V103.68ZM511.57 103.68V102.68H511.059L510.759 103.095L511.57 103.68ZM416.8 234.9L415.989 234.315L415.8 234.577V234.9H416.8ZM416.8 253.53H415.8V254.53H416.8V253.53ZM516.7 253.53H517.7V252.53H516.7V253.53ZM445.15 232.2L444.333 231.623L443.22 233.2H445.15V232.2ZM517.78 129.33H518.78V126.18L516.963 128.753L517.78 129.33ZM517.78 232.2V233.2H518.78V232.2H517.78ZM516.7 298H541V296H516.7V298ZM542 297V253.53H540V297H542ZM541 254.53H568V252.53H541V254.53ZM569 253.53V232.2H567V253.53H569ZM568 231.2H541V233.2H568V231.2ZM542 232.2V103.68H540V232.2H542ZM541 102.68H511.57V104.68H541V102.68ZM510.759 103.095L415.989 234.315L417.611 235.485L512.381 104.265L510.759 103.095ZM415.8 234.9V253.53H417.8V234.9H415.8ZM416.8 254.53H516.7V252.53H416.8V254.53ZM515.7 253.53V297H517.7V253.53H515.7ZM445.967 232.777L518.597 129.907L516.963 128.753L444.333 231.623L445.967 232.777ZM516.78 129.33V232.2H518.78V129.33H516.78ZM517.78 231.2H445.15V233.2H517.78V231.2Z" fill="black"/>
</svg>
