<svg width="185" height="185" viewBox="0 0 185 185" fill="none" xmlns="http://www.w3.org/2000/svg">
<circle cx="92.5" cy="92.5" r="89" fill="white" stroke="black" stroke-width="7"/>
<path d="M138 72C140.761 72 143 69.7615 143 67V47C143 44.2385 140.761 42 138 42H48C45.2385 42 43 44.2385 43 47V67C43 69.7615 45.2385 72 48 72H53V77H48C45.2385 77 43 79.2385 43 82V102C43 104.761 45.2385 107 48 107H53V112H48C45.2385 112 43 114.239 43 117V137C43 139.761 45.2385 142 48 142H138C140.761 142 143 139.761 143 137V117C143 114.239 140.761 112 138 112H133V107H138C140.761 107 143 104.761 143 102V82C143 79.2385 140.761 77 138 77H133V72H138ZM138 115.333C138.92 115.333 139.667 116.08 139.667 117V137C139.667 137.92 138.92 138.667 138 138.667H48C47.0796 138.667 46.3333 137.92 46.3333 137V117C46.3333 116.08 47.0796 115.333 48 115.333H138ZM56.3333 112V107H59.6667V112H56.3333ZM63 112V107H123V112H63ZM126.333 112V107H129.667V112H126.333ZM138 80.3333C138.92 80.3333 139.667 81.0796 139.667 82V102C139.667 102.92 138.92 103.667 138 103.667H48C47.0796 103.667 46.3333 102.92 46.3333 102V82C46.3333 81.0796 47.0796 80.3333 48 80.3333H138ZM56.3333 77V72H59.6667V77H56.3333ZM63 77V72H123V77H63ZM126.333 77V72H129.667V77H126.333ZM48 68.6667C47.0796 68.6667 46.3333 67.9204 46.3333 67V47C46.3333 46.0796 47.0796 45.3333 48 45.3333H138C138.92 45.3333 139.667 46.0796 139.667 47V67C139.667 67.9204 138.92 68.6667 138 68.6667H48Z" fill="black"/>
<path d="M96.3333 55.3333H62.6933C61.7729 52.7298 58.916 51.3654 56.3127 52.286C53.7094 53.2066 52.3448 56.0631 53.2652 58.6666C54.1856 61.2702 57.0425 62.6346 59.6458 61.7139C61.0698 61.2106 62.19 60.0906 62.6933 58.6666H96.3333C97.2538 58.6666 98 57.9204 98 57C98 56.0796 97.2538 55.3333 96.3333 55.3333ZM58 58.6666C57.0796 58.6666 56.3333 57.9204 56.3333 57C56.3333 56.0796 57.0796 55.3333 58 55.3333C58.9204 55.3333 59.6667 56.0796 59.6667 57C59.6667 57.9204 58.9204 58.6666 58 58.6666Z" fill="black"/>
<path d="M119.667 48.6667H116.333V52H119.667V48.6667Z" fill="black"/>
<path d="M126.333 48.6667H123V52H126.333V48.6667Z" fill="black"/>
<path d="M133 48.6667H129.667V52H133V48.6667Z" fill="black"/>
<path d="M113 48.6667H109.667V52H113V48.6667Z" fill="black"/>
<path d="M106.333 48.6667H103V52H106.333V48.6667Z" fill="black"/>
<path d="M119.667 55.3333H116.333V58.6667H119.667V55.3333Z" fill="black"/>
<path d="M126.333 55.3333H123V58.6667H126.333V55.3333Z" fill="black"/>
<path d="M133 55.3333H129.667V58.6667H133V55.3333Z" fill="black"/>
<path d="M113 55.3333H109.667V58.6667H113V55.3333Z" fill="black"/>
<path d="M106.333 55.3333H103V58.6667H106.333V55.3333Z" fill="black"/>
<path d="M119.667 62H116.333V65.3333H119.667V62Z" fill="black"/>
<path d="M126.333 62H123V65.3333H126.333V62Z" fill="black"/>
<path d="M133 62H129.667V65.3333H133V62Z" fill="black"/>
<path d="M113 62H109.667V65.3333H113V62Z" fill="black"/>
<path d="M106.333 62H103V65.3333H106.333V62Z" fill="black"/>
<path d="M96.3333 90.3333H62.6933C61.7729 87.7298 58.916 86.3654 56.3127 87.286C53.7094 88.2066 52.3448 91.0631 53.2652 93.6666C54.1856 96.2702 57.0425 97.6346 59.6458 96.7139C61.0698 96.2106 62.1898 95.0904 62.6931 93.6666H96.3333C97.2538 93.6666 98 92.9204 98 92C98 91.0796 97.2538 90.3333 96.3333 90.3333ZM58 93.6666C57.0796 93.6666 56.3333 92.9204 56.3333 92C56.3333 91.0796 57.0796 90.3333 58 90.3333C58.9204 90.3333 59.6667 91.0796 59.6667 92C59.6667 92.9204 58.9204 93.6666 58 93.6666Z" fill="black"/>
<path d="M119.667 83.6667H116.333V87H119.667V83.6667Z" fill="black"/>
<path d="M126.333 83.6667H123V87H126.333V83.6667Z" fill="black"/>
<path d="M133 83.6667H129.667V87H133V83.6667Z" fill="black"/>
<path d="M113 83.6667H109.667V87H113V83.6667Z" fill="black"/>
<path d="M106.333 83.6667H103V87H106.333V83.6667Z" fill="black"/>
<path d="M119.667 90.3333H116.333V93.6667H119.667V90.3333Z" fill="black"/>
<path d="M126.333 90.3333H123V93.6667H126.333V90.3333Z" fill="black"/>
<path d="M133 90.3333H129.667V93.6667H133V90.3333Z" fill="black"/>
<path d="M113 90.3333H109.667V93.6667H113V90.3333Z" fill="black"/>
<path d="M106.333 90.3333H103V93.6667H106.333V90.3333Z" fill="black"/>
<path d="M119.667 97H116.333V100.333H119.667V97Z" fill="black"/>
<path d="M126.333 97H123V100.333H126.333V97Z" fill="black"/>
<path d="M133 97H129.667V100.333H133V97Z" fill="black"/>
<path d="M113 97H109.667V100.333H113V97Z" fill="black"/>
<path d="M106.333 97H103V100.333H106.333V97Z" fill="black"/>
<path d="M96.3333 125.333H62.6933C61.7729 122.73 58.916 121.365 56.3127 122.286C53.7094 123.207 52.3448 126.063 53.2652 128.667C54.1856 131.27 57.0425 132.635 59.6458 131.714C61.0698 131.211 62.1898 130.09 62.6931 128.667H96.3333C97.2538 128.667 98 127.92 98 127C98 126.08 97.2538 125.333 96.3333 125.333ZM58 128.667C57.0796 128.667 56.3333 127.92 56.3333 127C56.3333 126.08 57.0796 125.333 58 125.333C58.9204 125.333 59.6667 126.08 59.6667 127C59.6667 127.92 58.9204 128.667 58 128.667Z" fill="black"/>
<path d="M119.667 118.667H116.333V122H119.667V118.667Z" fill="black"/>
<path d="M126.333 118.667H123V122H126.333V118.667Z" fill="black"/>
<path d="M133 118.667H129.667V122H133V118.667Z" fill="black"/>
<path d="M113 118.667H109.667V122H113V118.667Z" fill="black"/>
<path d="M106.333 118.667H103V122H106.333V118.667Z" fill="black"/>
<path d="M119.667 125.333H116.333V128.667H119.667V125.333Z" fill="black"/>
<path d="M126.333 125.333H123V128.667H126.333V125.333Z" fill="black"/>
<path d="M133 125.333H129.667V128.667H133V125.333Z" fill="black"/>
<path d="M113 125.333H109.667V128.667H113V125.333Z" fill="black"/>
<path d="M106.333 125.333H103V128.667H106.333V125.333Z" fill="black"/>
<path d="M119.667 132H116.333V135.333H119.667V132Z" fill="black"/>
<path d="M126.333 132H123V135.333H126.333V132Z" fill="black"/>
<path d="M133 132H129.667V135.333H133V132Z" fill="black"/>
<path d="M113 132H109.667V135.333H113V132Z" fill="black"/>
<path d="M106.333 132H103V135.333H106.333V132Z" fill="black"/>
</svg>
