<svg height="512pt" fill="#fff" viewBox="-85 0 511 512" width="512pt" xmlns="http://www.w3.org/2000/svg"><path d="m290.707031 172h-5.207031v-57c0-63.410156-51.589844-115-115-115s-115 51.589844-115 115v57h-4.707031c-27.59375 0-50.042969 22.449219-50.042969 50.042969l-.25 279.957031c0 5.523438 4.476562 10 10 10h320c5.523438 0 10-4.476562 10-10l.25-279.957031c0-27.59375-22.449219-50.042969-50.042969-50.042969zm-215.207031-57c0-52.382812 42.617188-95 95-95s95 42.617188 95 95v57h-30v-57c0-19.785156-6.726562-36.476562-19.453125-48.273438-11.632813-10.785156-27.808594-16.726562-45.546875-16.726562s-33.914062 5.941406-45.546875 16.726562c-12.726563 11.796876-19.453125 28.488282-19.453125 48.273438v57h-30zm140 0v57h-90v-57c0-33.214844 24.242188-45 45-45s45 11.785156 45 45zm105 377h-300v-20h300zm0-80h-110c-5.511719 0-10 4.488281-10 10s4.488281 10 10 10h110v20h-300v-20h110c5.519531 0 10-4.488281 10-10s-4.480469-10-10-10h-110v-20h300zm.25-40h-300v-149.957031c0-16.566407 13.476562-30.042969 30.042969-30.042969h239.917969c16.5625 0 30.039062 13.476562 30.039062 30.042969zm0 0"/><path d="m103.285156 285.1875c-2.933594-2.476562-6.320312-4.636719-10.003906-6.546875-5.738281-2.972656-21.1875-6.316406-21.1875-14.636719 0-2.226562 1.113281-4.121094 3.339844-5.679687 5.761718-4.035157 15.613281-2.683594 21.523437.199219 4.554688 2.21875 9.832031 4.027343 12.898438-1.261719 1.46875-2.535157 2.207031-4.980469 2.207031-7.335938 0-5.695312-5.953125-8.933593-10.761719-10.121093-5.132812-1.269532-10.546875-2-15.839843-2-9.445313 0-17.511719 2.339843-24.195313 7.019531-6.679687 4.679687-10.023437 11.738281-10.023437 21.183593 0 16.269532 14.160156 24.953126 27.46875 30.8125 5.433593 2.394532 14.902343 6.632813 14.90625 13.835938 0 9.863281-14.566407 9.921875-20.855469 7.203125-4.867188-2.109375-9.261719-8.804687-14.835938-8.804687-5.273437-.003907-9.089843 6.527343-9.089843 11.226562 0 4.457031 3.207031 8.46875 9.625 12.03125 6.417968 3.5625 13.945312 5.347656 22.589843 5.347656 17.375 0 33.417969-10.433594 33.417969-29.140625 0-10.113281-4.375-17.585937-11.183594-23.332031zm0 0"/><path d="m287.4375 318.140625h-30.476562v-73.25c-.003907-5.003906-6.558594-6.285156-10.429688-6.285156-3.90625 0-10.425781 1.222656-10.425781 6.285156v85.011719c0 4.65625 5.234375 6.417968 9.089843 6.417968h42.238282c4.542968 0 6.015625-5.4375 6.015625-9.089843 0-3.648438-1.488281-9.089844-6.011719-9.089844zm0 0"/><path d="m170.5 432c5.511719 0 10-4.488281 10-10s-4.488281-10-10-10-10 4.488281-10 10 4.488281 10 10 10zm0 0"/><path d="m194.285156 285.1875c-2.933594-2.476562-6.320312-4.636719-10.003906-6.546875-5.738281-2.972656-21.1875-6.316406-21.1875-14.636719 0-2.226562 1.113281-4.121094 3.339844-5.679687 5.761718-4.035157 15.613281-2.683594 21.523437.199219 4.554688 2.21875 9.832031 4.027343 12.898438-1.261719 1.46875-2.535157 2.207031-4.980469 2.207031-7.335938 0-5.695312-5.953125-8.933593-10.761719-10.121093-5.132812-1.269532-10.546875-2-15.839843-2-9.445313 0-17.511719 2.339843-24.195313 7.019531-6.679687 4.679687-10.023437 11.738281-10.023437 21.183593 0 16.269532 14.160156 24.953126 27.46875 30.8125 5.433593 2.394532 14.902343 6.632813 14.90625 13.835938 0 9.863281-14.566407 9.921875-20.855469 7.203125-4.867188-2.109375-9.261719-8.804687-14.835938-8.804687-5.273437-.003907-9.089843 6.527343-9.089843 11.226562 0 4.457031 3.207031 8.46875 9.625 12.03125 6.417968 3.5625 13.945312 5.347656 22.589843 5.347656 17.375 0 33.417969-10.433594 33.417969-29.140625 0-10.113281-4.375-17.585937-11.183594-23.332031zm0 0"/></svg>