<svg width="185" height="185" viewBox="0 0 185 185" fill="none" xmlns="http://www.w3.org/2000/svg">
<circle cx="92.5" cy="92.5" r="89" fill="white" stroke="black" stroke-width="7"/>
<path d="M131.647 136.238H54.3527C48.0932 136.238 43 131.145 43 124.885V59.3527C43 53.0932 48.0932 48 54.3527 48H131.647C137.907 48 143 53.0932 143 59.3527V124.885C143 131.145 137.907 136.238 131.647 136.238ZM54.3527 51.3816C49.9577 51.3816 46.3816 54.9577 46.3816 59.3527V124.885C46.3816 129.28 49.9577 132.856 54.3527 132.856H131.647C136.042 132.856 139.618 129.28 139.618 124.885V59.3527C139.618 54.9577 136.042 51.3816 131.647 51.3816H54.3527Z" fill="black"/>
<path d="M127.739 110.424H101.17C100.236 110.424 99.4793 109.667 99.4793 108.733C99.4793 107.8 100.236 107.042 101.17 107.042H127.739C128.672 107.042 129.43 107.8 129.43 108.733C129.43 109.667 128.673 110.424 127.739 110.424Z" fill="black"/>
<path d="M127.739 122.648H101.17C100.236 122.648 99.4793 121.891 99.4793 120.957C99.4793 120.024 100.236 119.266 101.17 119.266H127.739C128.672 119.266 129.43 120.024 129.43 120.957C129.43 121.891 128.673 122.648 127.739 122.648Z" fill="black"/>
<path d="M127.739 85.9746H101.17C100.236 85.9746 99.4793 85.2179 99.4793 84.2838C99.4793 83.3506 100.236 82.593 101.17 82.593H127.739C128.672 82.593 129.43 83.3506 129.43 84.2838C129.43 85.2179 128.673 85.9746 127.739 85.9746Z" fill="black"/>
<path d="M127.739 98.1991H101.17C100.236 98.1991 99.4793 97.4424 99.4793 96.5083C99.4793 95.5751 100.236 94.8174 101.17 94.8174H127.739C128.672 94.8174 129.43 95.5751 129.43 96.5083C129.43 97.4424 128.673 98.1991 127.739 98.1991Z" fill="black"/>
<path d="M141.309 70.6402H44.6908C43.7567 70.6402 43 69.8835 43 68.9494C43 68.0153 43.7567 67.2586 44.6908 67.2586H141.309C142.243 67.2586 143 68.0153 143 68.9494C143 69.8835 142.243 70.6402 141.309 70.6402Z" fill="black"/>
<path d="M67.3754 64.6138C64.474 64.6138 62.1133 62.254 62.1133 59.3527C62.1133 56.4513 64.474 54.0915 67.3754 54.0915C70.2768 54.0915 72.6365 56.4513 72.6365 59.3527C72.6365 62.254 70.2768 64.6138 67.3754 64.6138ZM67.3754 57.4731C66.3384 57.4731 65.4949 58.3167 65.4949 59.3527C65.4949 60.3887 66.3384 61.2322 67.3754 61.2322C68.4114 61.2322 69.2549 60.3887 69.2549 59.3527C69.2549 58.3167 68.4114 57.4731 67.3754 57.4731Z" fill="black"/>
<path d="M55.1924 64.6138C52.292 64.6138 49.9312 62.254 49.9312 59.3527C49.9312 56.4513 52.292 54.0915 55.1924 54.0915C58.0938 54.0915 60.4545 56.4513 60.4545 59.3527C60.4545 62.254 58.0938 64.6138 55.1924 64.6138ZM55.1924 57.4731C54.1564 57.4731 53.3129 58.3167 53.3129 59.3527C53.3129 60.3887 54.1564 61.2322 55.1924 61.2322C56.2294 61.2322 57.0729 60.3887 57.0729 59.3527C57.0729 58.3167 56.2294 57.4731 55.1924 57.4731Z" fill="black"/>
<path d="M79.5574 64.6138C76.656 64.6138 74.2962 62.254 74.2962 59.3527C74.2962 56.4513 76.656 54.0915 79.5574 54.0915C82.4588 54.0915 84.8195 56.4513 84.8195 59.3527C84.8195 62.254 82.4588 64.6138 79.5574 64.6138ZM79.5574 57.4731C78.5205 57.4731 77.6779 58.3167 77.6779 59.3527C77.6779 60.3887 78.5214 61.2322 79.5574 61.2322C80.5944 61.2322 81.4379 60.3887 81.4379 59.3527C81.4379 58.3167 80.5944 57.4731 79.5574 57.4731Z" fill="black"/>
<path d="M88.4106 122.648H57.7343C56.8002 122.648 56.0435 121.891 56.0435 120.957V84.2838C56.0435 83.3506 56.8002 82.593 57.7343 82.593H88.4106C89.3447 82.593 90.1014 83.3506 90.1014 84.2838V120.957C90.1014 121.891 89.3447 122.648 88.4106 122.648ZM59.4251 119.266H86.7198V85.9746H59.4251V119.266Z" fill="black"/>
</svg>
