<?xml version="1.0" standalone="no"?>
<!DOCTYPE svg PUBLIC "-//W3C//DTD SVG 20010904//EN"
 "http://www.w3.org/TR/2001/REC-SVG-20010904/DTD/svg10.dtd">
<svg version="1.0" xmlns="http://www.w3.org/2000/svg"
 width="546.000000pt" height="546.000000pt" viewBox="0 0 546.000000 546.000000"
 preserveAspectRatio="xMidYMid meet">

<g transform="translate(0.000000,546.000000) scale(0.100000,-0.100000)"
fill="#000000" stroke="none">
<path d="M2495 5150 c-319 -36 -586 -114 -858 -252 -713 -361 -1191 -1026
-1314 -1828 -24 -160 -24 -520 0 -680 41 -266 114 -501 229 -731 360 -727
1026 -1211 1838 -1336 160 -25 520 -25 680 0 267 41 501 114 731 229 727 360
1212 1027 1336 1838 24 160 24 520 0 680 -80 519 -305 980 -662 1349 -368 381
-860 634 -1395 716 -124 19 -470 28 -585 15z m1435 -1505 l0 -325 -1205 0
-1205 0 0 325 0 325 1205 0 1205 0 0 -325z m10 -910 l0 -325 -877 -2 -878 -3
-3 -152 -3 -153 881 0 880 0 0 -330 0 -330 -1205 0 -1205 0 0 794 c0 437 3
801 6 810 6 14 121 16 1205 16 l1199 0 0 -325z"/>
</g>
</svg>
