<svg width="185" height="185" viewBox="0 0 185 185" fill="none" xmlns="http://www.w3.org/2000/svg">
<circle cx="92.5" cy="92.5" r="89" fill="white" stroke="black" stroke-width="7"/>
<path d="M127.127 73.2481C126.06 73.2585 125.003 73.453 124.002 73.8231V73.2481C124.002 66.8067 121.999 60.5249 118.271 55.2726L126.211 47.3318L121.793 42.9129L114.161 50.5444C102.164 39.1519 83.3451 39.1519 71.3475 50.5444L63.7098 42.9129L59.2909 47.3318L67.2317 55.2726C63.5029 60.5249 61.4999 66.8067 61.5003 73.2481V73.8231C60.4995 73.453 59.4423 73.2585 58.3753 73.2481C53.1974 73.2481 49 77.4455 49 82.6234V107.624C49 112.802 53.1974 116.999 58.3753 116.999C59.4423 116.989 60.4995 116.794 61.5003 116.424V123.249H70.8756V142H89.6261V123.249H95.8763V142H114.627V123.249H124.002V116.424C125.003 116.794 126.06 116.989 127.127 116.999C132.305 116.999 136.502 112.802 136.502 107.624V82.6234C136.502 77.4455 132.305 73.2481 127.127 73.2481ZM61.5003 107.624C61.5003 109.35 60.1013 110.749 58.3753 110.749C56.6492 110.749 55.2502 109.35 55.2502 107.624V82.6234C55.2502 80.8974 56.6492 79.4983 58.3753 79.4983C60.1013 79.4983 61.5003 80.8974 61.5003 82.6234V107.624ZM83.3759 135.75H77.1258V123.249H83.3759V135.75ZM108.377 135.75H102.126V123.249H108.377V135.75ZM117.752 116.999H67.7505V79.4983H117.752V116.999ZM67.7505 73.2481C67.7505 59.4407 78.9438 48.2474 92.7512 48.2474C106.559 48.2474 117.752 59.4407 117.752 73.2481H67.7505ZM130.252 107.624C130.252 109.35 128.853 110.749 127.127 110.749C125.401 110.749 124.002 109.35 124.002 107.624V82.6234C124.002 80.8974 125.401 79.4983 127.127 79.4983C128.853 79.4983 130.252 80.8974 130.252 82.6234V107.624Z" fill="black"/>
<path d="M86.501 60.7478H80.2509V66.9979H86.501V60.7478Z" fill="black"/>
<path d="M105.252 60.7478H99.0014V66.9979H105.252V60.7478Z" fill="black"/>
</svg>
