<svg width="185" height="185" viewBox="0 0 185 185" fill="none" xmlns="http://www.w3.org/2000/svg">
<circle cx="92.5" cy="92.5" r="89" fill="white" stroke="black" stroke-width="7"/>
<path d="M90.0566 113.287C89.543 113.287 89.0391 113.496 88.6758 113.859C88.3127 114.223 88.1035 114.725 88.1035 115.24C88.1035 115.754 88.3125 116.258 88.6758 116.621C89.0391 116.984 89.543 117.193 90.0566 117.193C90.5703 117.193 91.0742 116.984 91.4375 116.621C91.8006 116.256 92.0098 115.754 92.0098 115.24C92.0098 114.724 91.8008 114.223 91.4375 113.859C91.0742 113.496 90.5703 113.287 90.0566 113.287Z" fill="black"/>
<path d="M127.33 107.453C126.814 107.453 126.311 107.662 125.947 108.025C125.584 108.389 125.377 108.891 125.377 109.406C125.377 109.92 125.584 110.424 125.947 110.787C126.311 111.15 126.814 111.359 127.33 111.359C127.844 111.359 128.346 111.15 128.711 110.787C129.074 110.422 129.283 109.92 129.283 109.406C129.283 108.893 129.074 108.389 128.711 108.025C128.346 107.662 127.844 107.453 127.33 107.453Z" fill="black"/>
<path d="M69.5506 98.0547C69.0369 98.0547 68.533 98.2635 68.1699 98.627C67.8067 98.9902 67.5975 99.4941 67.5975 100.008C67.5975 100.521 67.8065 101.025 68.1699 101.388C68.533 101.752 69.0369 101.961 69.5506 101.961C70.0643 101.961 70.5682 101.752 70.9315 101.388C71.2947 101.025 71.5037 100.521 71.5037 100.008C71.5037 99.4941 71.2949 98.9902 70.9315 98.627C70.568 98.2637 70.0643 98.0547 69.5506 98.0547Z" fill="black"/>
<path d="M143 63.1986C143 62.1199 142.125 61.2455 141.047 61.2455H138.039C137.628 59.8738 137.081 58.5508 136.401 57.2895L138.528 55.1631C139.29 54.4004 139.29 53.1637 138.528 52.401L132.599 46.4727C131.836 45.71 130.6 45.71 129.837 46.4727L127.711 48.5988C126.449 47.9195 125.126 47.3719 123.754 46.9609V43.9531C123.754 42.8746 122.88 42 121.801 42H113.417C112.339 42 111.464 42.8744 111.464 43.9531V46.9682C110.095 47.3799 108.775 47.9279 107.516 48.607L105.382 46.4725C104.619 45.7098 103.383 45.7098 102.62 46.4725L96.691 52.401C96.2262 52.866 96.0463 53.5068 96.148 54.1092H50.8189C46.5076 54.1094 43 57.617 43 61.9285V115.822C43 120.133 46.5076 123.641 50.8189 123.641H81.8531V130.281H77.1727C73.2918 130.281 70.1344 133.439 70.1344 137.32V140.047C70.1344 141.125 71.009 142 72.0875 142H108.025C109.104 142 109.978 141.125 109.978 140.047V137.32C109.978 133.439 106.821 130.281 102.94 130.281H98.2594V123.641H129.276C133.587 123.641 137.095 120.133 137.095 115.822V83.8127L138.528 82.3801C138.894 82.0139 139.1 81.517 139.1 80.999C139.1 80.4811 138.894 79.9842 138.528 79.618L136.393 77.4836C137.072 76.2248 137.62 74.9049 138.032 73.5359H141.047C141.565 73.5359 142.062 73.3301 142.428 72.9639C142.794 72.5977 143 72.1008 143 71.5828L143 63.1986ZM106.072 137.32V138.094H74.0406V137.32C74.0406 135.592 75.4455 134.188 77.1727 134.188H102.94C104.667 134.188 106.072 135.592 106.072 137.32ZM94.3531 130.281H85.7594V123.641H94.3531V130.281ZM133.189 115.822C133.189 117.979 131.433 119.734 129.276 119.734H50.8189C48.6615 119.734 46.9062 117.979 46.9062 115.822V111.359H119.518C120.596 111.359 121.471 110.484 121.471 109.406C121.471 108.327 120.596 107.453 119.518 107.453H46.9062V101.961H61.815C62.8936 101.961 63.7682 101.086 63.7682 100.008C63.7682 98.9293 62.8936 98.0547 61.815 98.0547H46.9062V61.9285C46.9062 59.7709 48.6615 58.0156 50.8189 58.0156H98.4705C97.9609 59.0561 97.5367 60.1346 97.2039 61.2455H94.1721C93.6541 61.2455 93.1572 61.4514 92.791 61.8176C92.4248 62.1838 92.2188 62.6807 92.2188 63.1986L92.2189 71.5826C92.2189 72.6613 93.0936 73.5357 94.1721 73.5357H97.2111C97.6213 74.8988 98.1666 76.2135 98.8418 77.4676L96.6914 79.6182C95.9287 80.3809 95.9287 81.6176 96.6914 82.3803L102.62 88.3086C103.383 89.0713 104.619 89.0713 105.382 88.3086L107.533 86.1582C108.787 86.8336 110.102 87.3789 111.464 87.7889L111.464 90.8281C111.464 91.9066 112.339 92.7812 113.417 92.7812L121.802 92.7811C122.88 92.7811 123.755 91.9066 123.755 90.8279V87.7959C125.121 87.3869 126.438 86.842 127.695 86.1666L129.837 88.3086C130.203 88.6748 130.7 88.8807 131.218 88.8807C131.736 88.8807 132.233 88.6748 132.599 88.3086L133.189 87.7189V115.822ZM139.094 69.6295H136.524C135.608 69.6295 134.815 70.266 134.617 71.1604C134.177 73.1473 133.397 75.0254 132.3 76.742C131.805 77.5133 131.913 78.5279 132.563 79.1779L134.384 80.9992L131.218 84.1654L129.391 82.3387C128.796 81.7443 127.888 81.5967 127.136 81.9727C127.075 82.0027 127.017 82.0361 126.96 82.0723C125.244 83.1658 123.367 83.9416 121.382 84.3787C120.486 84.5758 119.848 85.3691 119.848 86.2861V88.875H115.37V86.2811C115.37 85.365 114.734 84.5721 113.839 84.374C111.857 83.9352 109.983 83.1578 108.269 82.0639C107.955 81.8635 107.591 81.757 107.218 81.757C106.7 81.757 106.203 81.9631 105.837 82.3293L104.001 84.1654L100.835 80.999L102.671 79.1631C103.321 78.5131 103.428 77.4986 102.934 76.7273C101.841 75.0143 101.065 73.1414 100.626 71.1604C100.428 70.266 99.635 69.6295 98.7189 69.6295H96.125L96.1252 65.1518H98.7137C99.6305 65.1518 100.424 64.5139 100.621 63.6184C101.058 61.6354 101.833 59.7604 102.925 58.0445C103.419 57.2734 103.311 56.2588 102.661 55.609L100.834 53.782L104.001 50.6158L105.822 52.4369C106.492 53.1064 107.527 53.1879 108.285 52.6826C109.994 51.5943 111.863 50.8207 113.839 50.3832C114.734 50.1852 115.37 49.3922 115.37 48.4764L115.371 45.9062H119.848V48.4707C119.848 49.3875 120.486 50.1811 121.382 50.3781C123.372 50.8164 125.254 51.5951 126.973 52.693C127.031 52.7297 127.09 52.7631 127.151 52.7936C127.902 53.1693 128.812 53.0221 129.406 52.4275L131.218 50.6156L134.384 53.782L132.572 55.5937C132.481 55.6848 132.4 55.7844 132.329 55.8914C131.897 56.5379 131.891 57.3777 132.309 58.0299C133.406 59.7488 134.184 61.6289 134.622 63.618C134.819 64.5135 135.612 65.1514 136.529 65.1514H139.094V69.6295H139.094Z" fill="black"/>
<path d="M117.609 55.2812C110.932 55.2812 105.5 60.7135 105.5 67.3906C105.5 74.0678 110.932 79.5 117.609 79.5C124.287 79.5 129.719 74.0678 129.719 67.3906C129.719 60.7135 124.287 55.2812 117.609 55.2812ZM117.609 75.5938C113.086 75.5938 109.406 71.9139 109.406 67.3906C109.406 62.8674 113.086 59.1875 117.609 59.1875C122.133 59.1875 125.812 62.8674 125.812 67.3906C125.812 71.9139 122.133 75.5938 117.609 75.5938Z" fill="black"/>
<path d="M74.9668 78.5664C74.451 78.5664 73.9492 78.7754 73.5859 79.1387C73.2207 79.502 73.0137 80.0059 73.0137 80.5215C73.0137 81.0352 73.2207 81.5391 73.5859 81.9023C73.9492 82.2656 74.4512 82.4727 74.9668 82.4727C75.4805 82.4727 75.9844 82.2656 76.3477 81.9023C76.7107 81.5391 76.9199 81.0352 76.9199 80.5215C76.9199 80.0059 76.7109 79.502 76.3477 79.1387C75.9844 78.7754 75.4805 78.5664 74.9668 78.5664Z" fill="black"/>
<path d="M90.2107 77.1215C90.3449 76.6211 90.2746 76.0881 90.0156 75.6395L86.7178 69.9277C86.1785 68.9938 84.984 68.6734 84.0498 69.2129L82.1713 70.2975C81.5543 69.8611 80.9016 69.4836 80.217 69.1674V67C80.217 65.9213 79.3424 65.0469 78.2639 65.0469H71.6684C70.5898 65.0469 69.7152 65.9213 69.7152 67V69.1674C69.0307 69.4838 68.3779 69.8611 67.7609 70.2975L65.8824 69.2129C65.4338 68.9539 64.9006 68.884 64.4004 69.0178C63.8998 69.152 63.4734 69.4791 63.2145 69.9277L59.9168 75.6395C59.3773 76.5736 59.6975 77.768 60.6316 78.3074L62.5109 79.3926C62.4773 79.7672 62.4604 80.1439 62.4604 80.5203C62.4604 80.8967 62.4773 81.2734 62.5109 81.648L60.6316 82.7332C59.6975 83.2725 59.3773 84.467 59.9168 85.4012L63.2145 91.1129C63.4734 91.5615 63.9 91.8889 64.4004 92.0229C64.9006 92.1568 65.4338 92.0869 65.8824 91.8277L67.7609 90.7432C68.3779 91.1795 69.0307 91.557 69.7152 91.8732V94.0406C69.7152 95.1191 70.5898 95.9938 71.6684 95.9938H78.2639C79.3424 95.9938 80.217 95.1191 80.217 94.0406V91.8732C80.9016 91.5568 81.5543 91.1795 82.1713 90.7432L84.0498 91.8277C84.9842 92.367 86.1783 92.0471 86.7178 91.1129L90.0156 85.4012C90.2746 84.9525 90.3449 84.4195 90.2107 83.9191C90.0766 83.4188 89.7494 82.9922 89.3008 82.7332L87.4213 81.6484C87.4551 81.2736 87.4721 80.8969 87.4721 80.5207C87.4721 80.1445 87.4551 79.7678 87.4213 79.3928L89.3008 78.3076C89.7492 78.0484 90.0766 77.6219 90.2107 77.1215ZM83.3854 78.7604C83.5049 79.3365 83.5656 79.9287 83.5656 80.5205C83.5656 81.1123 83.5049 81.7045 83.3854 82.2807C83.2141 83.1059 83.5914 83.9479 84.3211 84.3691L85.6561 85.1398L84.3113 87.4688L82.9742 86.6969C82.2439 86.2752 81.3248 86.3699 80.6957 86.9326C79.8051 87.7291 78.7816 88.3209 77.6537 88.6916C76.8522 88.9551 76.3106 89.7033 76.3106 90.5471V92.0881H73.6213V90.5471C73.6213 89.7033 73.0797 88.9551 72.2781 88.6916C71.1502 88.3209 70.1266 87.7289 69.2361 86.9326C68.6072 86.3699 67.6883 86.275 66.9576 86.6969L65.6205 87.4688L64.276 85.1398L65.6107 84.3691C66.3404 83.9479 66.7178 83.1059 66.5465 82.2807C66.4272 81.7051 66.3664 81.1129 66.3664 80.5205C66.3664 79.9281 66.4272 79.3361 66.5465 78.7604C66.7178 77.9352 66.3406 77.0934 65.6107 76.6719L64.276 75.9012L65.6205 73.5725L66.9576 74.3443C67.6879 74.7662 68.607 74.6713 69.2361 74.1086C70.1268 73.3121 71.1502 72.7203 72.2781 72.3496C73.0797 72.0861 73.6213 71.3379 73.6213 70.4941V68.9531H76.3106V70.4941C76.3106 71.3379 76.8522 72.0861 77.6537 72.3496C78.7816 72.7203 79.8053 73.3123 80.6957 74.1086C81.3244 74.6709 82.2434 74.766 82.9742 74.3443L84.3113 73.5723L85.6561 75.9012L84.3211 76.6719C83.5914 77.0934 83.2141 77.9354 83.3854 78.7604Z" fill="black"/>
</svg>
