<svg width="185" height="185" viewBox="0 0 185 185" fill="none" xmlns="http://www.w3.org/2000/svg">
<circle cx="92.5" cy="92.5" r="89" fill="white" stroke="black" stroke-width="7"/>
<g clip-path="url(#clip0)">
<path d="M135.714 49.743H50.2857C46.2684 49.743 43 53.0113 43 57.0287V126.971C43 130.988 46.2684 134.257 50.2857 134.257H135.714C139.732 134.257 143 130.989 143 126.971V57.0287C143 53.0113 139.732 49.743 135.714 49.743V49.743ZM140.07 66.0234H66.0072C65.198 66.0234 64.5424 66.6791 64.5424 67.4883C64.5424 68.2974 65.198 68.9531 66.0072 68.9531H140.07V126.971C140.07 129.373 138.116 131.328 135.714 131.328H50.2857C47.8838 131.327 45.9297 129.373 45.9297 126.971V68.9531H59.1596C59.9687 68.9531 60.6244 68.2974 60.6244 67.4883C60.6244 66.6791 59.9687 66.0234 59.1596 66.0234H45.9297V57.0287C45.9297 54.6265 47.8838 52.6724 50.2857 52.6724H135.714C138.116 52.6724 140.071 54.6265 140.071 57.0287V66.0234H140.07Z" fill="black"/>
<path d="M55.708 60.8084C56.5145 60.8084 57.1684 60.1546 57.1684 59.348C57.1684 58.5415 56.5145 57.8877 55.708 57.8877C54.9015 57.8877 54.2477 58.5415 54.2477 59.348C54.2477 60.1546 54.9015 60.8084 55.708 60.8084Z" fill="black"/>
<path d="M62.5908 60.8084C63.3974 60.8084 64.0512 60.1546 64.0512 59.348C64.0512 58.5415 63.3974 57.8877 62.5908 57.8877C61.7843 57.8877 61.1305 58.5415 61.1305 59.348C61.1305 60.1546 61.7843 60.8084 62.5908 60.8084Z" fill="black"/>
<path d="M69.4736 60.8084C70.2802 60.8084 70.934 60.1546 70.934 59.348C70.934 58.5415 70.2802 57.8877 69.4736 57.8877C68.6671 57.8877 68.0133 58.5415 68.0133 59.348C68.0133 60.1546 68.6671 60.8084 69.4736 60.8084Z" fill="black"/>
<path d="M131.752 57.8832H123.176C122.367 57.8832 121.711 58.5388 121.711 59.348C121.711 60.1572 122.367 60.8129 123.176 60.8129H131.752C132.562 60.8129 133.217 60.1572 133.217 59.348C133.217 58.5388 132.562 57.8832 131.752 57.8832Z" fill="black"/>
<path d="M81.366 105.065C81.366 105.863 82.0135 106.511 82.8125 106.511C83.6113 106.511 84.259 105.863 84.259 105.065C84.259 104.266 83.6113 103.618 82.8125 103.618C82.0135 103.618 81.366 104.266 81.366 105.065Z" fill="black"/>
<path d="M101.809 105.065C101.809 105.863 102.456 106.511 103.255 106.511C104.054 106.511 104.702 105.863 104.702 105.065C104.702 104.266 104.054 103.618 103.255 103.618C102.456 103.618 101.809 104.266 101.809 105.065Z" fill="black"/>
<path d="M77.5139 95.5848L75.7621 100.583L74.0379 95.5281C74.0363 95.5238 74.0344 95.5199 74.0328 95.5156C73.5729 94.207 71.7422 94.2238 71.276 95.499C71.2746 95.5025 71.2729 95.5058 71.2717 95.5096L69.4467 100.63L67.7192 95.6041C67.4563 94.839 66.624 94.4318 65.8578 94.6949C65.0928 94.9578 64.6856 95.7912 64.9486 96.5562L68.0363 105.541C68.2387 106.129 68.7908 106.526 69.4135 106.529H69.4217C70.0408 106.529 70.5936 106.14 70.8014 105.556L72.6213 100.45L74.3568 105.538C74.5584 106.128 75.1127 106.527 75.7371 106.529H75.7432C76.3652 106.529 76.9195 106.137 77.1256 105.549L80.2787 96.5537C80.5463 95.7904 80.1443 94.9545 79.3807 94.6867C78.6178 94.4197 77.7817 94.8211 77.5139 95.5848V95.5848Z" fill="black"/>
<path d="M97.8986 95.5847L96.1469 100.583L94.4227 95.5281C94.4211 95.5238 94.4191 95.5199 94.4176 95.5156C93.965 94.2265 92.1348 94.2027 91.6607 95.499C91.6594 95.5025 91.6576 95.5058 91.6564 95.5095L89.8314 100.63L88.1041 95.6041C87.8412 94.8388 87.008 94.4316 86.2428 94.6949C85.4777 94.9578 85.0705 95.7912 85.3336 96.5562L88.4211 105.541C88.6232 106.129 89.1756 106.526 89.798 106.529H89.8064C90.4256 106.529 90.9783 106.14 91.1861 105.556L93.0061 100.45L94.7418 105.538C94.9436 106.129 95.4976 106.527 96.1221 106.53H96.1281C96.7502 106.53 97.3045 106.137 97.5105 105.549L100.663 96.5539C100.931 95.7906 100.529 94.9546 99.7654 94.6869C99.0027 94.4197 98.1664 94.8213 97.8986 95.5847V95.5847Z" fill="black"/>
<path d="M118.284 95.5847L116.532 100.583L114.808 95.5281C114.353 94.2089 112.514 94.2193 112.046 95.4988C112.044 95.5023 112.043 95.5056 112.041 95.5093L110.216 100.63L108.489 95.6039C108.226 94.8386 107.393 94.4314 106.628 94.6947C105.863 94.9576 105.455 95.791 105.718 96.556L108.806 105.541C109.008 106.129 109.56 106.526 110.183 106.529H110.191C110.81 106.529 111.363 106.14 111.571 105.556L113.391 100.45L115.127 105.538C115.328 106.128 115.882 106.527 116.507 106.529H116.513C117.135 106.529 117.689 106.136 117.895 105.549L121.048 96.5537C121.316 95.7904 120.914 94.9545 120.15 94.6867C119.388 94.4197 118.551 94.8211 118.284 95.5847V95.5847Z" fill="black"/>
<path d="M54.5209 91.4426V109.623C54.5209 112.657 56.9896 115.126 60.0242 115.126H70.2939C75.2736 122.857 83.7957 127.523 93 127.523C102.196 127.523 110.722 122.864 115.706 115.126H126.304C129.338 115.126 131.807 112.657 131.807 109.623V103.782C131.807 102.973 131.151 102.317 130.342 102.317C129.533 102.317 128.877 102.973 128.877 103.782V109.623C128.877 111.042 127.723 112.196 126.304 112.196H60.0242C58.6051 112.196 57.4506 111.042 57.4506 109.623V91.4426C57.4506 90.0234 58.6051 88.8689 60.0242 88.8689H126.304C127.723 88.8689 128.877 90.0234 128.877 91.4426V96.8828C128.877 97.692 129.533 98.3477 130.342 98.3477C131.151 98.3477 131.807 97.692 131.807 96.8828V91.4426C131.807 88.408 129.338 85.9393 126.304 85.9393H115.706C110.726 78.209 102.204 73.543 93 73.543C83.8041 73.543 75.2781 78.2021 70.2939 85.9395H60.0242C56.9896 85.9395 54.5209 88.408 54.5209 91.4426V91.4426ZM106.231 115.126H112.125C109.527 118.524 106.026 121.258 101.851 122.907C103.774 120.658 105.207 117.902 106.231 115.126ZM94.4648 115.126H103.087C101.479 119.034 98.5822 123.507 94.4648 124.429V115.126ZM91.5352 115.126V124.429C87.4152 123.507 84.5189 119.029 82.9129 115.126H91.5352ZM79.7691 115.126C80.7932 117.902 82.2258 120.658 84.1488 122.907C79.9723 121.257 76.4723 118.523 73.8752 115.126H79.7691ZM112.123 85.9395H106.231C105.204 83.157 103.77 80.4033 101.851 78.1588C106.038 79.8127 109.533 82.5512 112.123 85.9395V85.9395ZM94.4648 76.6369C98.5848 77.5592 101.481 82.0369 103.087 85.9395H94.4648V76.6369ZM91.5352 76.6369V85.9395H82.9129C84.5209 82.032 87.4178 77.5586 91.5352 76.6369ZM84.1486 78.1588C82.2291 80.4041 80.7953 83.1582 79.7691 85.9395H73.8766C76.4664 82.5516 79.9611 79.8131 84.1486 78.1588V78.1588Z" fill="black"/>
</g>
<defs>
<clipPath id="clip0">
<rect width="100" height="100" fill="white" transform="translate(43 42)"/>
</clipPath>
</defs>
</svg>
